<svg width="65" height="64" viewBox="0 0 65 64" fill="none" xmlns="http://www.w3.org/2000/svg">
<path d="M54.3316 32.306C54.4627 19.8618 45.3825 11.4158 34.1326 10.6857C22.6799 9.94442 10.3163 16.2798 3.07359 25.7745C1.56694 27.7538 4.3315 29.786 5.9183 28.0159C12.8536 20.286 22.5431 15.0055 32.5914 14.9445C36.9549 14.8916 41.1785 16.2864 44.6633 18.931C49.2507 22.3763 50.7112 27.4844 52.2791 32.8974C52.6552 34.2002 54.3135 33.4436 54.3316 32.306Z" fill="white"/>
<path d="M57.21 45.1798C58.3674 39.6412 60.0249 33.5505 58.9007 27.9375C58.87 27.7352 58.7662 27.5556 58.6107 27.4361C58.4553 27.3165 58.2601 27.2661 58.0657 27.2953C57.8713 27.3245 57.6926 27.4311 57.5666 27.593C57.4406 27.7548 57.377 27.9596 57.389 28.1647C57.4108 33.3016 56.3895 38.1425 55.1459 43.0842C52.4241 41.5382 49.8858 39.4802 46.9718 38.4109C46.7115 38.3138 46.4239 38.3184 46.1601 38.4238C45.8964 38.5292 45.6737 38.7286 45.5316 38.9865C45.3896 39.2444 45.3373 39.5441 45.3843 39.8322C45.4312 40.1203 45.5743 40.3782 45.788 40.5599C48.7233 42.9323 51.9723 44.8503 55.4409 46.2583C55.6196 46.3279 55.8121 46.3544 56.0045 46.3359C56.1969 46.3173 56.3844 46.2542 56.5536 46.1511C56.7227 46.048 56.8693 45.9074 56.9828 45.7395C57.0963 45.5716 57.1739 45.3804 57.21 45.1798Z" fill="white"/>
</svg>
