<svg width="72" height="72" viewBox="0 0 72 72" fill="none" xmlns="http://www.w3.org/2000/svg">
<path d="M45.6918 14.8199C34.0519 10.0384 22.2457 15.743 16.7672 26.4507C11.1919 37.3522 11.8795 51.7892 17.718 62.4092C18.9365 64.6199 22.0242 62.6815 21.0365 60.4707C16.7257 50.8107 15.8903 39.3784 20.1134 29.5476C21.9225 25.2687 25.0325 21.6678 29.0026 19.2553C34.1949 16.0661 39.618 16.5507 45.3734 17.0445C46.758 17.1645 46.7534 15.263 45.6918 14.8199Z" fill="white"/>
<path d="M58.4115 16.6983C53.7177 13.5091 48.7192 9.62758 42.9869 8.63066C42.7845 8.58512 42.5723 8.61924 42.3943 8.72595C42.2163 8.83266 42.0863 9.00377 42.0311 9.20379C41.9759 9.40382 41.9998 9.61742 42.0978 9.8003C42.1959 9.98318 42.3605 10.1213 42.5577 10.186C47.3761 12.0783 51.4746 14.8753 55.5731 17.926C52.97 19.9983 49.9654 21.7014 47.7269 24.1383C47.5255 24.3555 47.4076 24.637 47.3944 24.9328C47.3811 25.2287 47.4732 25.5197 47.6543 25.754C47.8354 25.9883 48.0938 26.1507 48.3835 26.2124C48.6732 26.274 48.9753 26.2309 49.2361 26.0907C52.7037 24.1184 55.879 21.6717 58.67 18.8214C58.8111 18.6734 58.9176 18.496 58.9819 18.3019C59.0463 18.1078 59.0668 17.9018 59.0421 17.6988C59.0174 17.4959 58.948 17.3009 58.839 17.1279C58.73 16.9549 58.584 16.8082 58.4115 16.6983Z" fill="white"/>
</svg>
