<svg xmlns="http://www.w3.org/2000/svg" width="30" height="31" viewBox="0 0 30 31" fill="none">
    <g clip-path="url(#clip0_157_329)">
        <path d="M1.88757 8.30679C2.1338 8.30646 2.37766 8.35489 2.60507 8.44929C2.83248 8.54369 3.03896 8.68219 3.21257 8.85679L12.8038 18.4468C13.094 18.7371 13.4385 18.9673 13.8177 19.1244C14.1969 19.2815 14.6034 19.3624 15.0138 19.3624C15.4243 19.3624 15.8307 19.2815 16.2099 19.1244C16.5891 18.9673 16.9336 18.7371 17.2238 18.4468L26.8001 8.86929C26.973 8.69021 27.1799 8.54737 27.4087 8.4491C27.6374 8.35083 27.8835 8.29911 28.1324 8.29695C28.3814 8.29478 28.6283 8.34222 28.8587 8.4365C29.0892 8.53078 29.2985 8.67 29.4746 8.84605C29.6506 9.0221 29.7898 9.23145 29.8841 9.46188C29.9784 9.69231 30.0258 9.93921 30.0237 10.1882C30.0215 10.4371 29.9698 10.6832 29.8715 10.9119C29.7732 11.1407 29.6304 11.3476 29.4513 11.5205L19.8751 21.098C18.585 22.3858 16.8366 23.109 15.0138 23.109C13.191 23.109 11.4427 22.3858 10.1526 21.098L0.56132 11.508C0.298925 11.2458 0.120211 10.9116 0.0477937 10.5478C-0.0246239 10.184 0.0125087 9.80686 0.154493 9.46414C0.296477 9.12143 0.536932 8.82853 0.84543 8.62251C1.15393 8.4165 1.51661 8.30662 1.88757 8.30679Z" fill="white"/>
    </g>
    <defs>
        <clipPath id="clip0_157_329">
            <rect width="30" height="30" fill="white" transform="translate(0 0.708008)"/>
        </clipPath>
    </defs>
</svg>