<svg width="93" height="20" viewBox="0 0 93 20" fill="none" xmlns="http://www.w3.org/2000/svg">
    <g clip-path="url(#clip0_158_1454)">
        <g clip-path="url(#clip1_158_1454)">
            <path d="M14.4491 13.2833H9.88626C7.78961 13.2833 6.08385 11.5775 6.08385 9.48089V4.91801C6.08385 2.82136 7.78961 1.1156 9.88626 1.1156H14.4491C16.5458 1.1156 18.2515 2.82136 18.2515 4.91801V9.48089C18.2515 11.5775 16.5458 13.2833 14.4491 13.2833ZM8.36529 19.3671H3.80241C1.70576 19.3671 0 17.6614 0 15.5647V11.0019C0 8.90521 1.70576 7.19945 3.80241 7.19945C4.22295 7.19945 4.56289 7.54015 4.56289 7.95993V9.48089C4.56289 12.4164 6.95156 14.8043 9.88626 14.8043H11.4072C11.8278 14.8043 12.1677 15.145 12.1677 15.5647C12.1677 17.6614 10.4619 19.3671 8.36529 19.3671Z"
                  fill="url(#paint0_linear_158_1454)"/>
        </g>
        <path d="M31.8711 19.3195H24.2292V15.6611H31.8711C33.1177 15.6611 34.1113 15.5166 34.852 15.2275C35.6108 14.9204 36.1618 14.3784 36.505 13.6016C36.8663 12.8067 37.047 11.6866 37.047 10.2413C37.047 8.778 36.8663 7.65791 36.505 6.88108C36.1618 6.10424 35.6108 5.5713 34.852 5.28224C34.1113 4.97512 33.1177 4.82156 31.8711 4.82156H24.2292V1.16321H31.8711C33.8222 1.16321 35.5024 1.52453 36.9115 2.24716C38.3387 2.9698 39.4407 4.00859 40.2176 5.36354C40.9944 6.71848 41.3828 8.34442 41.3828 10.2413C41.3828 12.1383 40.9944 13.7642 40.2176 15.1191C39.4407 16.4741 38.3387 17.5129 36.9115 18.2355C35.5024 18.9582 33.8222 19.3195 31.8711 19.3195ZM27.183 19.3195H23.1182V1.16321H27.183V19.3195Z"
              fill="#11CD7E"/>
        <path d="M46.6644 19.3195H42.5996V1.1632H46.6644V19.3195ZM57.9647 19.3195H43.7378V15.6611H57.9647V19.3195ZM57.5582 12.0028H43.7378V8.37151H57.5582V12.0028ZM57.9647 4.82155H43.7378V1.1632H57.9647V4.82155Z"
              fill="white"/>
        <path d="M67.2262 19.5905C65.4015 19.5905 63.8478 19.3556 62.5651 18.8859C61.2825 18.3981 60.3069 17.6845 59.6385 16.7451C58.97 15.7876 58.6358 14.6043 58.6358 13.1951V13.0325H62.7006V13.5203C62.7006 14.0803 62.8181 14.532 63.0529 14.8752C63.3059 15.2185 63.7575 15.4714 64.4079 15.634C65.0582 15.7966 65.9977 15.8779 67.2262 15.8779C68.3101 15.8779 69.1411 15.8237 69.7193 15.7153C70.2974 15.5888 70.6948 15.3992 70.9116 15.1462C71.1284 14.8933 71.2368 14.5681 71.2368 14.1707C71.2368 13.6106 71.0471 13.2041 70.6677 12.9512C70.3064 12.6983 69.6651 12.4905 68.7437 12.3279L63.6491 11.5963C62.5651 11.4156 61.6348 11.1175 60.8579 10.702C60.0991 10.2865 59.512 9.73549 59.0965 9.04898C58.681 8.34441 58.4732 7.49531 58.4732 6.50168C58.4732 5.81518 58.6177 5.13771 58.9068 4.46927C59.2139 3.80083 59.6927 3.20465 60.343 2.68074C60.9934 2.13876 61.8425 1.70518 62.8903 1.37999C63.9562 1.0548 65.257 0.892212 66.7926 0.892212C68.6534 0.892212 70.1799 1.1632 71.3723 1.70518C72.5827 2.22909 73.486 2.97883 74.0822 3.95439C74.6784 4.91188 74.9764 6.02294 74.9764 7.28755V7.45015H70.8845V7.07076C70.8845 6.49265 70.758 6.02294 70.5051 5.66162C70.2703 5.3003 69.8277 5.03834 69.1773 4.87575C68.5269 4.69509 67.5965 4.60476 66.3861 4.60476C65.4105 4.60476 64.6427 4.66799 64.0827 4.79445C63.5407 4.92091 63.1523 5.11061 62.9174 5.36353C62.6826 5.61645 62.5651 5.94164 62.5651 6.33909C62.5651 6.68234 62.6374 6.9714 62.7819 7.20625C62.9265 7.42305 63.1523 7.59467 63.4594 7.72113C63.7665 7.8476 64.173 7.95599 64.6789 8.04632L69.7735 8.85929C71.1284 9.07608 72.2033 9.42837 72.9982 9.91615C73.8112 10.4039 74.3983 11.0001 74.7597 11.7047C75.121 12.3912 75.3016 13.1499 75.3016 13.981C75.3016 14.9565 75.0306 15.8779 74.4887 16.7451C73.9467 17.5942 73.0795 18.2807 71.8872 18.8046C70.6948 19.3285 69.1411 19.5905 67.2262 19.5905Z"
              fill="white"/>
        <path d="M86.2519 19.3195H82.1871V1.1632H86.2519V19.3195ZM92.9995 4.82155H75.4395V1.1632H92.9995V4.82155Z"
              fill="white"/>
    </g>
    <defs>
        <linearGradient id="paint0_linear_158_1454" x1="9.12577" y1="1.1156" x2="9.12577" y2="19.3671"
                        gradientUnits="userSpaceOnUse">
            <stop stop-color="#11CD7E"/>
            <stop offset="1" stop-color="#F2FE67"/>
        </linearGradient>
        <clipPath id="clip0_158_1454">
            <rect width="93" height="19" fill="white" transform="translate(0 0.5)"/>
        </clipPath>
        <clipPath id="clip1_158_1454">
            <rect width="18.2515" height="18.2515" fill="white" transform="translate(0 1.1156)"/>
        </clipPath>
    </defs>
</svg>
