<svg width="17" height="17" viewBox="0 0 17 17" fill="none" xmlns="http://www.w3.org/2000/svg">
    <g id="error">
        <mask id="mask0_666_484" style="mask-type:alpha" maskUnits="userSpaceOnUse" x="0" y="0" width="17" height="17">
            <rect id="Bounding box" width="17" height="17" fill="#D9D9D9"/>
        </mask>
        <g mask="url(#mask0_666_484)">
            <path id="error_2"
                  d="M8.49984 12.0417C8.70053 12.0417 8.86876 11.9739 9.00452 11.8381C9.14029 11.7023 9.20817 11.5341 9.20817 11.3334C9.20817 11.1327 9.14029 10.9645 9.00452 10.8287C8.86876 10.693 8.70053 10.6251 8.49984 10.6251C8.29914 10.6251 8.13091 10.693 7.99515 10.8287C7.85939 10.9645 7.7915 11.1327 7.7915 11.3334C7.7915 11.5341 7.85939 11.7023 7.99515 11.8381C8.13091 11.9739 8.29914 12.0417 8.49984 12.0417ZM7.7915 9.20841H9.20817V4.95841H7.7915V9.20841ZM8.49984 15.5834C7.51998 15.5834 6.59914 15.3975 5.73734 15.0256C4.87553 14.6537 4.12588 14.149 3.48838 13.5115C2.85088 12.874 2.34619 12.1244 1.97432 11.2626C1.60244 10.4008 1.4165 9.47994 1.4165 8.50008C1.4165 7.52022 1.60244 6.59939 1.97432 5.73758C2.34619 4.87578 2.85088 4.12612 3.48838 3.48862C4.12588 2.85112 4.87553 2.34644 5.73734 1.97456C6.59914 1.60269 7.51998 1.41675 8.49984 1.41675C9.4797 1.41675 10.4005 1.60269 11.2623 1.97456C12.1241 2.34644 12.8738 2.85112 13.5113 3.48862C14.1488 4.12612 14.6535 4.87578 15.0254 5.73758C15.3972 6.59939 15.5832 7.52022 15.5832 8.50008C15.5832 9.47994 15.3972 10.4008 15.0254 11.2626C14.6535 12.1244 14.1488 12.874 13.5113 13.5115C12.8738 14.149 12.1241 14.6537 11.2623 15.0256C10.4005 15.3975 9.4797 15.5834 8.49984 15.5834Z"
                  fill="#FF4445"/>
        </g>
    </g>
</svg>
