<svg width="34" height="33" viewBox="0 0 34 33" fill="none" xmlns="http://www.w3.org/2000/svg">
    <g id="Group 88">
        <path id="Fill 1" fill-rule="evenodd" clip-rule="evenodd"
              d="M-0.000244141 32.5889H7.99969V10.3271H-0.000244141V32.5889Z" fill="white"/>
        <path id="Fill 2" fill-rule="evenodd" clip-rule="evenodd"
              d="M19.2889 14.0006V10.5398H12C12.0946 12.3765 12 32.5889 12 32.5889H19.2889V20.6582C19.2889 19.9934 19.2614 19.3309 19.4484 18.8554C19.9502 17.5292 21.0253 16.154 22.9608 16.154C25.4928 16.154 26.6427 18.1917 26.6427 21.1793V32.5889H33.9998V20.3287C33.9998 13.4994 30.3774 10.3271 25.7679 10.3271C22.0486 10.3271 19.7202 12.4875 19.2889 14.0006Z"
              fill="white"/>
        <path id="Fill 4" fill-rule="evenodd" clip-rule="evenodd"
              d="M4.02567 0.208008C1.59261 0.208008 0 1.95514 0 4.25992C0 6.51895 1.54679 8.30317 3.93179 8.30317H3.97873C6.4565 8.30317 7.99994 6.514 7.99994 4.2525C7.953 1.95019 6.4565 0.208008 4.02567 0.208008Z"
              fill="white"/>
    </g>
</svg>
