<svg xmlns="http://www.w3.org/2000/svg" width="20" height="20" viewBox="0 0 20 20" fill="none">
    <path d="M9.99984 1.66675C10.4601 1.66675 10.8332 2.03985 10.8332 2.50008V5.00008C10.8332 5.46031 10.4601 5.83341 9.99984 5.83341C9.53959 5.83341 9.1665 5.46031 9.1665 5.00008V2.50008C9.1665 2.03985 9.53959 1.66675 9.99984 1.66675ZM9.99984 14.1667C10.4601 14.1667 10.8332 14.5398 10.8332 15.0001V17.5001C10.8332 17.9603 10.4601 18.3334 9.99984 18.3334C9.53959 18.3334 9.1665 17.9603 9.1665 17.5001V15.0001C9.1665 14.5398 9.53959 14.1667 9.99984 14.1667ZM18.3332 10.0001C18.3332 10.4603 17.9601 10.8334 17.4998 10.8334H14.9998C14.5396 10.8334 14.1665 10.4603 14.1665 10.0001C14.1665 9.53983 14.5396 9.16675 14.9998 9.16675H17.4998C17.9601 9.16675 18.3332 9.53983 18.3332 10.0001ZM5.83317 10.0001C5.83317 10.4603 5.46007 10.8334 4.99984 10.8334H2.49984C2.0396 10.8334 1.6665 10.4603 1.6665 10.0001C1.6665 9.53983 2.0396 9.16675 2.49984 9.16675H4.99984C5.46007 9.16675 5.83317 9.53983 5.83317 10.0001ZM15.8924 15.8927C15.5669 16.2181 15.0393 16.2181 14.7139 15.8927L12.9461 14.1248C12.6207 13.7994 12.6207 13.2718 12.9461 12.9463C13.2716 12.6209 13.7992 12.6209 14.1246 12.9463L15.8924 14.7142C16.2178 15.0396 16.2178 15.5672 15.8924 15.8927ZM7.05356 7.05381C6.72812 7.37924 6.20049 7.37924 5.87505 7.05381L4.10728 5.28604C3.78185 4.9606 3.78185 4.43296 4.10728 4.10752C4.43272 3.78209 4.96035 3.78209 5.2858 4.10752L7.05356 5.87529C7.379 6.20073 7.379 6.72836 7.05356 7.05381ZM4.10728 15.8927C3.78185 15.5672 3.78185 15.0396 4.10728 14.7142L5.87505 12.9463C6.20049 12.6209 6.72812 12.6209 7.05356 12.9463C7.379 13.2718 7.379 13.7994 7.05356 14.1248L5.2858 15.8927C4.96035 16.2181 4.43272 16.2181 4.10728 15.8927ZM12.9461 7.05381C12.6207 6.72836 12.6207 6.20073 12.9461 5.87529L14.7139 4.10752C15.0393 3.78209 15.5669 3.78209 15.8924 4.10752C16.2178 4.43296 16.2178 4.9606 15.8924 5.28604L14.1246 7.05381C13.7992 7.37924 13.2716 7.37924 12.9461 7.05381Z"
          fill="black"/>
</svg>
