<svg width="20" height="20" viewBox="0 0 20 20" fill="none" xmlns="http://www.w3.org/2000/svg">
    <path d="M1.66668 14.5833H3.75C4.67047 14.5833 5.41668 15.3295 5.41668 16.25V18.3333C5.41668 19.2538 4.67047 20 3.75 20H1.66668C0.746211 20 0 19.2538 0 18.3333V16.25C0 15.3295 0.746211 14.5833 1.66668 14.5833Z" fill="white"/>
    <path d="M19.2652 14.8683C18.9902 14.6821 18.6656 14.5828 18.3335 14.5833H16.2502C15.3297 14.5833 14.5835 15.3295 14.5835 16.25V18.3333C14.5835 19.2538 15.3297 20 16.2502 20H18.3335C19.254 20 20.0002 19.2538 20.0002 18.3333V16.25C20.0001 15.6959 19.7246 15.1781 19.2652 14.8683Z" fill="white"/>
    <path d="M1.66668 7.29169H3.75C4.67047 7.29169 5.41668 8.0379 5.41668 8.95837V11.0417C5.41668 11.9622 4.67047 12.7084 3.75 12.7084H1.66668C0.746211 12.7083 0 11.9622 0 11.0417V8.95837C0 8.03786 0.746211 7.29169 1.66668 7.29169Z" fill="white"/>
    <path d="M19.2652 7.57669C18.9902 7.39044 18.6656 7.29114 18.3335 7.29169H16.2502C15.3297 7.29169 14.5835 8.0379 14.5835 8.95837V11.0417C14.5835 11.9622 15.3297 12.7084 16.2502 12.7084H18.3335C19.254 12.7084 20.0002 11.9622 20.0002 11.0417V8.95837C20.0001 8.40423 19.7246 7.88642 19.2652 7.57669Z" fill="white"/>
    <path d="M1.66668 0H3.75C4.67047 0 5.41668 0.746211 5.41668 1.66668V3.75C5.41668 4.67047 4.67047 5.41668 3.75 5.41668H1.66668C0.746211 5.41668 0 4.67047 0 3.75V1.66668C0 0.746211 0.746211 0 1.66668 0Z" fill="white"/>
    <path d="M11.9732 14.8683C11.6982 14.6821 11.3736 14.5828 11.0415 14.5833H8.95818C8.03771 14.5833 7.2915 15.3295 7.2915 16.25V18.3333C7.2915 19.2538 8.03771 20 8.95818 20H11.0415C11.962 20 12.7082 19.2538 12.7082 18.3333V16.25C12.7081 15.6959 12.4326 15.1781 11.9732 14.8683Z" fill="white"/>
    <path d="M11.9732 7.57669C11.6982 7.39044 11.3736 7.29114 11.0415 7.29169H8.95818C8.03771 7.29169 7.2915 8.0379 7.2915 8.95837V11.0417C7.2915 11.9622 8.03771 12.7084 8.95818 12.7084H11.0415C11.962 12.7084 12.7082 11.9622 12.7082 11.0417V8.95837C12.7081 8.40423 12.4326 7.88642 11.9732 7.57669Z" fill="white"/>
    <path d="M11.9732 0.285002C11.6982 0.0987522 11.3736 -0.000544628 11.0415 2.24682e-06H8.95818C8.03771 2.24682e-06 7.2915 0.746213 7.2915 1.66668V3.75C7.2915 4.67047 8.03771 5.41668 8.95818 5.41668H11.0415C11.962 5.41668 12.7082 4.67047 12.7082 3.75V1.66668C12.7081 1.11258 12.4326 0.594729 11.9732 0.285002Z" fill="white"/>
    <path d="M19.7152 0.735C19.4054 0.275547 18.8876 7.8125e-05 18.3335 0H16.2502C15.3297 0 14.5835 0.746211 14.5835 1.66668V3.75C14.5835 4.67047 15.3297 5.41668 16.2502 5.41668H18.3335C19.254 5.41668 20.0002 4.67047 20.0002 3.75V1.66668C20.0007 1.33457 19.9014 1.00996 19.7152 0.735Z" fill="white"/>
</svg>
