<svg width="17" height="16" viewBox="0 0 17 16" fill="none" xmlns="http://www.w3.org/2000/svg">
    <path d="M16.5 15.3333C16.5 15.7 16.2 16 15.8333 16C14.8067 16 14.3067 15.2533 13.9467 14.7C13.6133 14.2 13.4467 14 13.1667 14C12.8267 14 12.5667 14.2933 12.16 14.7666C11.6933 15.32 11.1133 16 10.14 16C9.16667 16 8.59333 15.3133 8.14 14.7533C7.75333 14.2866 7.5 14 7.16667 14C6.90667 14 6.74667 14.1666 6.39333 14.6066C5.91333 15.1933 5.25333 16 3.83333 16C1.99333 16 0.5 14.5066 0.5 12.6666C0.5 10.8266 1.99333 9.33329 3.83333 9.33329C4.2 9.33329 4.5 9.63329 4.5 9.99996C4.5 10.3666 4.2 10.6666 3.83333 10.6666C2.73333 10.6666 1.83333 11.5666 1.83333 12.6666C1.83333 13.7666 2.73333 14.6666 3.83333 14.6666C4.62 14.6666 4.94667 14.2666 5.36 13.76C5.76 13.2733 6.25333 12.6666 7.16667 12.6666C8.14667 12.6666 8.71333 13.3533 9.16667 13.9133C9.55333 14.38 9.80667 14.6666 10.14 14.6666C10.4733 14.6666 10.74 14.3733 11.1467 13.9C11.6133 13.3466 12.1933 12.6666 13.1667 12.6666C14.14 12.6666 14.6933 13.4133 15.0533 13.9666C15.3867 14.4666 15.5533 14.6666 15.8333 14.6666C16.2 14.6666 16.5 14.9666 16.5 15.3333ZM6.49333 10.6666H7.12C7.82667 10.6666 8.50667 10.3866 9.00667 9.88662L14.1533 4.73996L11.76 2.34662L6.61333 7.49329C6.11333 7.99329 5.83333 8.67329 5.83333 9.37996V10.0066C5.83333 10.3733 6.12667 10.6666 6.49333 10.6666ZM16.0067 2.88662C16.3267 2.56662 16.5 2.13996 16.5 1.68662C16.5 1.23329 16.3267 0.806624 16.0067 0.493291C15.3467 -0.166709 14.2733 -0.166709 13.6133 0.493291L12.7067 1.39996L15.1 3.79329L16.0067 2.88662Z"
          fill="black"/>
</svg>
