<svg width="440" height="491" viewBox="0 0 440 491" fill="none" xmlns="http://www.w3.org/2000/svg">
<mask id="path-1-inside-1_13_5" fill="white">
<path d="M39.3772 14.9317C40.1928 6.13287 47.9782 -0.251477 56.7664 0.671873L425.088 39.3704C433.876 40.2937 440.339 48.1751 439.523 56.9739L400.625 476.62C399.809 485.419 392.024 491.803 383.235 490.88L14.9143 452.181C6.12611 451.258 -0.336938 443.377 0.478658 434.578L39.3772 14.9317Z"/>
</mask>
<path d="M39.3772 14.9317C40.1928 6.13287 47.9782 -0.251477 56.7664 0.671873L425.088 39.3704C433.876 40.2937 440.339 48.1751 439.523 56.9739L400.625 476.62C399.809 485.419 392.024 491.803 383.235 490.88L14.9143 452.181C6.12611 451.258 -0.336938 443.377 0.478658 434.578L39.3772 14.9317Z" fill="white" fill-opacity="0.09"/>
<path d="M56.5818 2.66334L424.903 41.3618L425.272 37.3789L56.951 -1.31959L56.5818 2.66334ZM437.534 56.765L398.636 476.411L402.614 476.829L441.512 57.1829L437.534 56.765ZM383.42 488.889L15.0989 450.19L14.7297 454.173L383.051 492.871L383.42 488.889ZM2.46771 434.787L41.3663 15.1407L37.3882 14.7227L-1.51039 434.369L2.46771 434.787ZM15.0989 450.19C7.40923 449.382 1.75406 442.486 2.46771 434.787L-1.51039 434.369C-2.42794 444.268 4.84299 453.134 14.7297 454.173L15.0989 450.19ZM398.636 476.411C397.922 484.11 391.11 489.696 383.42 488.889L383.051 492.871C392.938 493.91 401.696 486.728 402.614 476.829L398.636 476.411ZM424.903 41.3618C432.593 42.1698 438.248 49.066 437.534 56.765L441.512 57.1829C442.43 47.2842 435.159 38.4177 425.272 37.3789L424.903 41.3618ZM56.951 -1.31959C47.0643 -2.35836 38.3057 4.82403 37.3882 14.7227L41.3663 15.1407C42.0799 7.44171 48.8922 1.8554 56.5818 2.66334L56.951 -1.31959Z" fill="#F2FE67" mask="url(#path-1-inside-1_13_5)"/>
</svg>
