<svg width="34" height="30" viewBox="0 0 34 30" fill="none" xmlns="http://www.w3.org/2000/svg">
    <path id="Fill 1" fill-rule="evenodd" clip-rule="evenodd"
          d="M29.9873 5.32604C31.4312 4.42275 32.5401 3.00049 33.0648 1.29647C31.7137 2.12725 30.2187 2.72288 28.6256 3.0699C27.3578 1.64556 25.5386 0.757812 23.5371 0.757812C19.6855 0.757812 16.5622 4.02083 16.5622 8.05455C16.5622 8.62117 16.623 9.18158 16.7393 9.70885C10.9523 9.4188 5.8051 6.5028 2.36299 2.0972C1.76478 3.17141 1.42248 4.42275 1.42248 5.76422C1.42248 8.28969 2.65196 10.5365 4.52657 11.8251C3.38133 11.7796 2.30541 11.4698 1.36597 10.9177V11.0182C1.36597 14.5454 3.77054 17.4904 6.96101 18.1709C6.37666 18.3367 5.75925 18.4123 5.11839 18.4123C4.67053 18.4123 4.24506 18.3823 3.81426 18.2828C4.69825 21.1916 7.27664 23.3037 10.3285 23.3472C7.94096 25.3133 4.93391 26.4694 1.66561 26.4694C1.10045 26.4694 0.543829 26.4373 0 26.3668C3.08596 28.4469 6.74561 29.6578 10.6932 29.6578C23.5222 29.6578 30.5418 18.5387 30.5418 8.89879C30.5418 8.59113 30.5344 8.2783 30.5184 7.96546C31.8801 6.92337 33.0648 5.6368 33.9999 4.17725C32.7417 4.7677 31.4045 5.14891 29.9873 5.32604Z"
          fill="white"/>
</svg>
